<?xml version="1.0" encoding="UTF-8"?>
<svg version="1.1" xmlns="http://www.w3.org/2000/svg" width="512" height="512">
<path d="M0 0 C1.31854369 -0.00384115 2.63708737 -0.00768229 3.99558693 -0.01163983 C5.44704955 -0.01085972 6.89851212 -0.00998096 8.34997463 -0.00901413 C9.90108881 -0.0115998 11.45220232 -0.01461352 13.00331491 -0.01801753 C17.25886756 -0.02606713 21.51440331 -0.02787596 25.76996267 -0.028615 C30.36252027 -0.03046912 34.95506917 -0.03801828 39.54762173 -0.04475021 C49.58708205 -0.05831976 59.62653836 -0.06435616 69.66600633 -0.06876087 C75.93788535 -0.07152574 82.20976283 -0.07576355 88.48164082 -0.08026505 C105.85564642 -0.09245612 123.2296508 -0.10275562 140.60366058 -0.10614014 C142.27094317 -0.10646949 142.27094317 -0.10646949 143.97190824 -0.10680549 C145.0860505 -0.10702377 146.20019276 -0.10724204 147.34809691 -0.10746694 C149.60567574 -0.1079104 151.86325457 -0.10835696 154.1208334 -0.10880661 C155.24066431 -0.10902804 156.36049522 -0.10924947 157.5142604 -0.10947761 C175.65268254 -0.11342421 193.79106447 -0.13087476 211.92947108 -0.15416613 C230.56366638 -0.17790047 249.19784152 -0.19034294 267.83205217 -0.19150805 C278.28968906 -0.19242367 288.74727355 -0.19814724 299.20489597 -0.21632767 C308.11115231 -0.23175678 317.01734007 -0.23683256 325.92360724 -0.22858956 C330.46406442 -0.22469296 335.0043836 -0.2255641 339.54482365 -0.23964691 C343.70942562 -0.25244536 347.87378674 -0.2511366 352.03838866 -0.2390562 C353.53707502 -0.23710944 355.0357788 -0.2401299 356.53444076 -0.24890056 C379.89350749 -0.37684188 399.56434819 6.70012498 416.29002285 23.13142776 C417.45211269 24.25677933 417.45211269 24.25677933 418.6376791 25.40486526 C432.62495593 39.84798817 437.91989809 57.68745365 437.80468655 77.43767166 C437.81002215 79.05100436 437.81709363 80.66433209 437.8257336 82.27765048 C437.8442537 86.67744355 437.83809292 91.07689758 437.82758057 95.47670412 C437.82055814 100.23484579 437.83660953 104.99291993 437.8495779 109.75104141 C437.87117266 119.05953766 437.87110258 128.36791144 437.86295236 137.67642449 C437.85664143 145.24560123 437.85779941 152.81474238 437.86422443 160.38391876 C437.86512609 161.46299279 437.86602774 162.54206683 437.86695672 163.65384007 C437.86880801 165.84628117 437.87067057 168.03872226 437.87254428 170.23116334 C437.88910713 190.77100438 437.88041658 211.31077665 437.8635587 231.85061355 C437.84886467 250.62173993 437.8634887 269.3927062 437.89232887 288.16381197 C437.92175618 307.46153518 437.93268532 326.75918458 437.92314667 346.05692923 C437.92212417 348.24172122 437.92112955 350.42651322 437.92016315 352.61130524 C437.91968676 353.68612683 437.91921037 354.76094842 437.91871955 355.86834037 C437.91655974 363.422662 437.92633644 370.97691341 437.94093418 378.53121948 C437.95849269 387.74587264 437.95828976 396.96032177 437.93558253 406.17496704 C437.92447206 410.87160859 437.92120502 415.56789117 437.93988323 420.26451683 C437.95679585 424.57280479 437.95019268 428.88042369 437.92566644 433.18866916 C437.92081786 434.73833246 437.92420291 436.28805086 437.93715388 437.83766763 C438.09074085 457.66197724 430.9904851 475.2331758 417.03221035 489.41658401 C416.12728848 490.31248245 415.2223666 491.20838089 414.29002285 492.13142776 C413.57072598 492.8726387 412.8514291 493.61384964 412.11033535 494.37752151 C398.1224878 507.91670226 379.96782683 512.75683361 360.98377895 512.64609146 C359.37044625 512.65142706 357.75711853 512.65849855 356.14380014 512.66713852 C351.74400707 512.68565862 347.34455303 512.67949784 342.94474649 512.66898549 C338.18660482 512.66196306 333.42853068 512.67801444 328.6704092 512.69098282 C319.36191295 512.71257758 310.05353917 512.71250749 300.74502613 512.70435727 C293.17584938 512.69804634 285.60670823 512.69920433 278.03753185 512.70562935 C276.95845782 512.706531 275.87938379 512.70743266 274.76761054 512.70836164 C272.57516944 512.71021292 270.38272836 512.71207548 268.19028728 512.7139492 C247.65044623 512.73051205 227.11067397 512.7218215 206.57083707 512.70496362 C187.79971068 512.69026958 169.02874441 512.70489362 150.25763865 512.73373378 C130.95991544 512.7631611 111.66226604 512.77409023 92.36452138 512.76455158 C90.1797294 512.76352908 87.99493739 512.76253447 85.81014538 512.76156807 C84.73532379 512.76109168 83.66050219 512.76061529 82.55311025 512.76012446 C74.99878861 512.75796466 67.4445372 512.76774136 59.89023113 512.7823391 C50.67557798 512.79989761 41.46112884 512.79969467 32.24648358 512.77698744 C27.54984203 512.76587697 22.85355945 512.76260994 18.15693378 512.78128815 C13.84864582 512.79820077 9.54102692 512.7915976 5.23278145 512.76707136 C3.68311815 512.76222278 2.13339975 512.76560782 0.58378299 512.7785588 C-19.24052663 512.93214577 -36.81172518 505.83189002 -50.9951334 491.87361526 C-52.33898106 490.51623245 -52.33898106 490.51623245 -53.70997715 489.13142776 C-54.45118809 488.41213089 -55.19239902 487.69283401 -55.9560709 486.95174026 C-68.27772535 474.22176589 -74.82215569 455.94869214 -74.84140491 438.42145061 C-74.84524606 437.10290693 -74.8490872 435.78436324 -74.85304475 434.42586368 C-74.85226464 432.97440106 -74.85138587 431.52293849 -74.85041904 430.07147598 C-74.85300471 428.52036181 -74.85601844 426.9692483 -74.85942245 425.4181357 C-74.86747205 421.16258306 -74.86928088 416.9070473 -74.87001991 412.65148795 C-74.87187404 408.05893035 -74.8794232 403.46638144 -74.88615513 398.87382889 C-74.89972468 388.83436857 -74.90576108 378.79491225 -74.91016579 368.75544429 C-74.91293065 362.48356527 -74.91716846 356.21168778 -74.92166996 349.9398098 C-74.93386104 332.5658042 -74.94416053 315.19179982 -74.94754505 297.81779003 C-74.94776462 296.70626831 -74.94798418 295.59474658 -74.9482104 294.44954238 C-74.94842868 293.33540012 -74.94864696 292.22125786 -74.94887185 291.07335371 C-74.94931531 288.81577488 -74.94976188 286.55819605 -74.95021152 284.30061722 C-74.95043295 283.18078631 -74.95065438 282.06095539 -74.95088252 280.90719021 C-74.95482913 262.76876807 -74.97227967 244.63038614 -74.99557105 226.49197953 C-75.01930538 207.85778424 -75.03174786 189.2236091 -75.03291297 170.58939844 C-75.03382858 160.13176156 -75.03955215 149.67417706 -75.05773258 139.21655464 C-75.0731617 130.3102983 -75.07823747 121.40411055 -75.06999448 112.49784338 C-75.06609788 107.9573862 -75.06696902 103.41706701 -75.08105183 98.87662697 C-75.09385027 94.712025 -75.09254152 90.54766387 -75.08046111 86.38306195 C-75.07851435 84.88437559 -75.08153481 83.38567181 -75.09030548 81.88700985 C-75.21824679 58.52794313 -68.14127994 38.85710243 -51.70997715 22.13142776 C-50.95974277 21.3567012 -50.2095084 20.58197464 -49.43653965 19.78377151 C-36.26835073 7.03118989 -18.28550283 0.02008198 0 0 Z " fill="#0D0D0C" transform="translate(74.70997714996338,-0.13142776489257813)"/>
<path d="M0 0 C18.48 0 36.96 0 56 0 C64.86474609 17.72949219 64.86474609 17.72949219 68.4375 25.4375 C71.2802296 31.50849783 74.25588659 37.4747822 77.4375 43.375 C81.80093673 51.46799259 85.73520413 59.7403558 89.65625 68.0546875 C92.66311416 74.42487471 95.82056335 80.71421721 99 87 C103.40881836 95.71845602 107.71066107 104.47428212 111.875 113.3125 C115.46801172 120.92792038 119.26994828 128.39552312 123.24072266 135.81982422 C127.76024739 144.32476417 131.82656738 153.03654372 135.93066406 161.74707031 C138.20516214 166.53909502 140.60295542 171.26849687 143 176 C156 201.71782946 156 201.71782946 156 206 C156.66 206 157.32 206 158 206 C158.99 208.475 158.99 208.475 160 211 C158.3614576 205.55295363 156.01162495 200.55336197 153.5625 195.4375 C153.16740234 194.60025391 152.77230469 193.76300781 152.36523438 192.90039062 C150.13914908 188.17566015 150.13914908 188.17566015 147.45160961 183.70750141 C145.817762 180.66009481 145.6292914 178.89446666 145.63923645 175.46342468 C145.63305046 173.81235466 145.63305046 173.81235466 145.6267395 172.12792969 C145.63752533 170.93031006 145.64831116 169.73269043 145.65942383 168.4987793 C145.65898575 167.23008499 145.65854767 165.96139069 145.65809631 164.6542511 C145.65723685 161.18345532 145.67485434 157.71297165 145.69581819 154.2422483 C145.71459333 150.61210199 145.71633608 146.98194824 145.71989441 143.35176086 C145.72921243 136.48116085 145.75382286 129.61070432 145.78394288 122.74016744 C145.81749449 114.91676233 145.8339748 107.09335031 145.84902918 99.26989114 C145.88037272 83.17983023 145.93538166 67.08996692 146 51 C132.14 51 118.28 51 104 51 C104 34.17 104 17.34 104 0 C148.55 0 193.1 0 239 0 C239 16.5 239 33 239 50 C233.84375 50.165 228.6875 50.33 223.375 50.5 C220.98193604 50.57831055 220.98193604 50.57831055 218.54052734 50.65820312 C217.2355127 50.69880859 215.93049805 50.73941406 214.5859375 50.78125 C213.2767334 50.82314453 211.9675293 50.86503906 210.61865234 50.90820312 C204.41358492 51.0315304 198.20629288 51 192 51 C192 124.59 192 198.18 192 274 C173.52 273.67 155.04 273.34 136 273 C127.75445557 256.50891113 127.75445557 256.50891113 124.70678711 250.36279297 C122.01410015 244.94213405 119.25681304 239.58161529 116.26953125 234.31640625 C113.66370119 229.56176863 111.30663204 224.67637353 108.90283203 219.81738281 C107.4702491 216.93362203 106.01308626 214.06223815 104.5625 211.1875 C101.54900079 205.1740454 98.69006431 199.09683578 95.85766602 192.99633789 C93.71688456 188.41980411 91.43210911 183.98986439 88.8125 179.6640625 C88 178 88 178 88 175 C87.01 174.67 86.02 174.34 85 174 C83.859375 171.734375 83.859375 171.734375 82.75 168.75 C80.50897978 163.07720852 77.83702298 157.83821642 74.8984375 152.5 C61 126.87654321 61 126.87654321 61 122 C60.34 122 59.68 122 59 122 C58.64808594 121.22398437 58.29617187 120.44796875 57.93359375 119.6484375 C54.13469309 111.33648254 50.13052157 103.15105884 46 95 C46.31694824 95.89831543 46.63389648 96.79663086 46.96044922 97.72216797 C48.51154946 103.20269939 48.47167254 108.78493174 48.6328125 114.4453125 C48.67446533 115.71614685 48.71611816 116.9869812 48.7590332 118.29632568 C48.87208382 121.82849124 48.97060871 125.36092613 49.06485748 128.89363861 C49.12512265 131.12955065 49.18891777 133.36533995 49.25335693 135.60113525 C50.5523387 181.38573643 50.16401698 227.20281443 50 273 C33.5 273 17 273 0 273 C-0.0220651 241.61052625 -0.04052172 210.22106001 -0.05106533 178.83158092 C-0.05231597 175.12177008 -0.05361029 171.41195925 -0.05493164 167.70214844 C-0.05519395 166.9636237 -0.05545626 166.22509896 -0.05572652 165.46419469 C-0.06007219 153.52215801 -0.06795367 141.58012618 -0.0771528 129.63809237 C-0.08652001 117.37514015 -0.0920621 105.11219046 -0.09408849 92.84923482 C-0.09545735 85.28859334 -0.09977337 77.72796554 -0.10791647 70.16732827 C-0.11385094 64.35983348 -0.11445121 58.55234737 -0.11310768 52.74485016 C-0.11338198 50.36975521 -0.11536017 47.99465972 -0.11920547 45.61956787 C-0.1242135 42.36572431 -0.12297225 39.11193828 -0.12025452 35.85809326 C-0.12316736 34.92809218 -0.1260802 33.9980911 -0.12908131 33.03990817 C-0.08657389 14.08657389 -0.08657389 14.08657389 3 11 C6 17.625 6 17.625 6 21 C6.66 21 7.32 21 8 21 C8.27972656 21.63164063 8.55945313 22.26328125 8.84765625 22.9140625 C12.34737987 30.72373514 16.14265225 38.36296921 20 46 C21.33574679 48.66546162 22.66783402 51.33274733 24 54 C24.61972713 55.2396156 25.23951765 56.47919951 25.859375 57.71875 C40 86 40 86 41.60546875 89.3984375 C42.73604731 92.10845352 42.73604731 92.10845352 45 93 C44.74214722 92.48429443 44.48429443 91.96858887 44.21862793 91.43725586 C31.5234375 66.046875 31.5234375 66.046875 30.05299377 63.10585022 C29.08092145 61.16179706 28.10870284 59.21781703 27.13633728 57.27391052 C24.96713904 52.93697272 22.79942742 48.59932937 20.63891602 44.25805664 C20.28007324 43.53783325 19.92123047 42.81760986 19.55151367 42.07556152 C18.90543761 40.77852076 18.26023633 39.48104361 17.61621094 38.1829834 C15.47480926 33.88671775 13.22433858 29.65721304 10.9375 25.4375 C8.15819869 20.26880548 5.50898158 15.05575242 3 9.75 C2.69698975 9.11763428 2.39397949 8.48526855 2.08178711 7.83374023 C0.77295451 5.02207431 0 3.14273273 0 0 Z " fill="#D6130A" transform="translate(153,98)"/>
<path d="M0 0 C44.55 0 89.1 0 135 0 C135 16.5 135 33 135 50 C129.84375 50.165 124.6875 50.33 119.375 50.5 C116.98193604 50.57831055 116.98193604 50.57831055 114.54052734 50.65820312 C113.2355127 50.69880859 111.93049805 50.73941406 110.5859375 50.78125 C109.2767334 50.82314453 107.9675293 50.86503906 106.61865234 50.90820312 C100.41358492 51.0315304 94.20629288 51 88 51 C88 124.59 88 198.18 88 274 C87.67 273.34 87.34 272.68 87 272 C86.34 272 85.68 272 85 272 C84.731875 271.401875 84.46375 270.80375 84.1875 270.1875 C83.16439242 267.99849555 83.16439242 267.99849555 81.58984375 266.7734375 C79.34422285 264.26849429 78.52175783 261.58580754 77.375 258.4375 C75.84302568 254.15156666 75.84302568 254.15156666 74 250 C73.01 250 72.02 250 71 250 C71.020625 249.0925 71.04125 248.185 71.0625 247.25 C71.01083082 243.51840002 71.01083082 243.51840002 70 240 C69.01 239.67 68.02 239.34 67 239 C65.60227968 236.57708609 64.37392289 234.21123531 63.1875 231.6875 C62.48350645 230.22635354 61.77907505 228.76541796 61.07421875 227.3046875 C60.72665527 226.57733398 60.3790918 225.84998047 60.02099609 225.10058594 C59.09512592 223.19571101 58.13430872 221.31757448 57.14453125 219.4453125 C56.60183594 218.41148437 56.05914062 217.37765625 55.5 216.3125 C55.0153125 215.40113281 54.530625 214.48976563 54.03125 213.55078125 C52.93076916 210.82875857 52.79052577 208.90645493 53 206 C53.99 206.99 53.99 206.99 55 208 C53.96057678 205.74894142 52.91847851 203.49917847 51.875 201.25 C51.59140625 200.63511719 51.3078125 200.02023437 51.015625 199.38671875 C50.71914063 198.74863281 50.42265625 198.11054688 50.1171875 197.453125 C49.81304743 196.79083012 49.50890736 196.12853523 49.19555092 195.44617081 C48.35947712 193.73551234 47.45602486 192.05690197 46.50469017 190.40755844 C42.16383609 182.63516108 41.15660869 176.52203939 41.31884766 167.70410156 C41.31753342 165.79952682 41.31753342 165.79952682 41.31619263 163.85647583 C41.31448902 160.41462055 41.34946665 156.97405039 41.39163637 153.53249073 C41.42944873 149.92112262 41.4326925 146.30971669 41.43978882 142.69818115 C41.45834906 135.87718498 41.50746427 129.05677401 41.56788576 122.23603415 C41.63522812 114.46331453 41.66800911 106.69056519 41.69805837 98.9176259 C41.76057328 82.94468851 41.87049279 66.97255607 42 51 C28.14 51 14.28 51 0 51 C0 34.17 0 17.34 0 0 Z " fill="#CF150B" transform="translate(257,98)"/>
<path d="M0 0 C4 6 4 6 4 10 C4.66 10 5.32 10 6 10 C6.27972656 10.63164063 6.55945313 11.26328125 6.84765625 11.9140625 C10.34737987 19.72373514 14.14265225 27.36296921 18 35 C19.33574679 37.66546162 20.66783402 40.33274733 22 43 C22.61972713 44.2396156 23.23951765 45.47919951 23.859375 46.71875 C38 75 38 75 39.54296875 78.3359375 C40.86726687 81.24650223 40.86726687 81.24650223 44 83 C46.31531025 89.73862627 46.43053927 96.46891962 46.6328125 103.54296875 C46.67446533 104.81238815 46.71611816 106.08180756 46.7590332 107.38969421 C46.87194511 110.91362745 46.97053922 114.4378279 47.06485748 117.96230316 C47.12516585 120.19363622 47.18895352 122.4248486 47.25335693 124.65606689 C48.55359407 170.42228424 48.16395124 216.22117122 48 262 C31.5 262 15 262 -2 262 C-2.0220651 230.61052625 -2.04052172 199.22106001 -2.05106533 167.83158092 C-2.05231597 164.12177008 -2.05361029 160.41195925 -2.05493164 156.70214844 C-2.05519395 155.9636237 -2.05545626 155.22509896 -2.05572652 154.46419469 C-2.06007219 142.52215801 -2.06795367 130.58012618 -2.0771528 118.63809237 C-2.08652001 106.37514015 -2.0920621 94.11219046 -2.09408849 81.84923482 C-2.09545735 74.28859334 -2.09977337 66.72796554 -2.10791647 59.16732827 C-2.11385094 53.35983348 -2.11445121 47.55234737 -2.11310768 41.74485016 C-2.11338198 39.36975521 -2.11536017 36.99465972 -2.11920547 34.61956787 C-2.1242135 31.36572431 -2.12297225 28.11193828 -2.12025452 24.85809326 C-2.12316736 23.92809218 -2.1260802 22.9980911 -2.12908131 22.03990817 C-2.08902178 4.17804355 -2.08902178 4.17804355 0 0 Z " fill="#A80A06" transform="translate(155,109)"/>
<path d="M0 0 C2.17903776 3.26855664 3.88999407 6.67394552 5.625 10.1875 C6.34630095 11.63934936 7.06765663 13.09117152 7.7890625 14.54296875 C8.15676758 15.28466309 8.52447266 16.02635742 8.90332031 16.79052734 C10.24850825 19.50066777 11.60112799 22.2070404 12.95535278 24.91267395 C15.22943441 29.45655224 17.50136947 34.00150198 19.77148438 38.54736328 C23.1137797 45.23917198 26.46429264 51.92671802 29.8293457 58.6071167 C31.60463046 62.13261665 33.37670087 65.65972757 35.1484375 69.18701172 C36.06242961 71.00475976 36.97783305 72.82179874 37.89453125 74.63818359 C39.23548169 77.29600403 40.57136887 79.95631474 41.90625 82.6171875 C42.31862915 83.43162323 42.7310083 84.24605896 43.15588379 85.08517456 C43.53047729 85.83421051 43.9050708 86.58324646 44.29101562 87.35498047 C44.62218384 88.01287567 44.95335205 88.67077087 45.29455566 89.34860229 C46 91 46 91 46 93 C43 92 43 92 41.7890625 90.03808594 C41.40492188 89.19536133 41.02078125 88.35263672 40.625 87.484375 C40.19703125 86.56269531 39.7690625 85.64101562 39.328125 84.69140625 C38.88984375 83.72074219 38.4515625 82.75007813 38 81.75 C37.12725225 79.8479233 36.25231732 77.94684835 35.375 76.046875 C34.99085938 75.19963867 34.60671875 74.35240234 34.2109375 73.47949219 C32.94458512 70.88653356 31.50142537 68.46293053 30 66 C28.81374349 63.69488791 27.64609068 61.38721232 26.5 59.0625 C26.20480469 58.46759766 25.90960938 57.87269531 25.60546875 57.25976562 C24.73583021 55.50708003 23.86789787 53.75354819 23 52 C22.00103802 49.99948133 21.00104534 47.99947699 20 46 C16.5625 39.125 16.5625 39.125 15.63842773 37.27026367 C14.32859996 34.64330619 13.01139104 32.02188801 11.65625 29.41796875 C9 24.3046875 9 24.3046875 9 21 C8.34 21 7.68 21 7 21 C5.68 18.36 4.36 15.72 3 13 C2.11225487 27.77524694 1.83332385 42.50205813 1.79467773 57.30175781 C1.78507259 59.66921143 1.77506108 62.03666343 1.76467896 64.40411377 C1.737909 70.76635236 1.7167504 77.12859817 1.69667697 83.49086094 C1.67688199 89.48578768 1.65279385 95.48069661 1.62875474 101.47560748 C1.58134466 113.3330102 1.53801037 125.19042404 1.49731445 137.04785156 C1.45782293 148.55176658 1.41636509 160.05567181 1.37231445 171.55957031 C1.36959018 172.27119478 1.36686591 172.98281925 1.36405908 173.7160081 C1.35037737 177.28677263 1.33665754 180.85753702 1.32291877 184.42830133 C1.20937272 213.9521807 1.10323744 243.47608246 1 273 C17.5 273 34 273 51 273 C51 273.66 51 274.32 51 275 C34.17 275 17.34 275 0 275 C0 184.25 0 93.5 0 0 Z " fill="#4F0606" transform="translate(152,98)"/>
<path d="M0 0 C44.22 0 88.44 0 134 0 C134 16.5 134 33 134 50 C133.67 50 133.34 50 133 50 C132.31496965 33.99105928 131.84542702 18.02406534 132 2 C130.92653257 2.24398781 130.92653257 2.24398781 129.83137894 2.49290466 C127.04482433 2.99197204 124.52525094 3.120436 121.69793701 3.11352539 C120.64915375 3.1134549 119.60037048 3.1133844 118.51980591 3.11331177 C116.80988968 3.10556229 116.80988968 3.10556229 115.06542969 3.09765625 C113.2525798 3.09546585 113.2525798 3.09546585 111.40310669 3.0932312 C108.78124617 3.0894277 106.15946248 3.08382002 103.53762054 3.07516479 C99.39513899 3.06162678 95.25266815 3.05574547 91.11016846 3.05102539 C82.32343124 3.03993725 73.53671983 3.02038127 64.75 3 C55.25027777 2.97799003 45.75056583 2.9574258 36.25082326 2.94658184 C32.12900744 2.94158716 28.00724032 2.93171029 23.88544416 2.91815186 C20.72929928 2.90897705 17.5731474 2.90617946 14.41699219 2.90234375 C13.26895111 2.89717743 12.12091003 2.89201111 10.93807983 2.88668823 C9.38182388 2.88658249 9.38182388 2.88658249 7.79412842 2.88647461 C6.43362429 2.88314369 6.43362429 2.88314369 5.04563522 2.87974548 C3.00620058 2.77233547 3.00620058 2.77233547 2 4 C1.92703518 6.71793945 2.00373131 9.42257315 2.0625 12.140625 C2.00241086 14.88970336 1.62405124 17.32828064 1 20 C0.67 20 0.34 20 0 20 C0 13.4 0 6.8 0 0 Z " fill="#EA3017" transform="translate(258,98)"/>
<path d="M0 0 C18.48 0 36.96 0 56 0 C64.86738281 17.73476562 64.86738281 17.73476562 68.4375 25.4375 C71.33843487 31.63512474 74.38409661 37.72337239 77.625 43.75 C80.5803768 49.25689726 83.43956829 54.79331021 86.125 60.4375 C86.43260254 61.07075195 86.74020508 61.70400391 87.05712891 62.35644531 C87.76821944 63.87618581 88.39298767 65.43577593 89 67 C88.67 67.66 88.34 68.32 88 69 C86 68 86 68 85.3671875 66.15234375 C85.20476562 65.42144531 85.04234375 64.69054687 84.875 63.9375 C84.70742187 63.20402344 84.53984375 62.47054687 84.3671875 61.71484375 C84.18542969 60.86599609 84.18542969 60.86599609 84 60 C83.34 60 82.68 60 82 60 C81.54109375 58.92621094 81.0821875 57.85242188 80.609375 56.74609375 C79.98979858 55.30980296 79.36999474 53.87361026 78.75 52.4375 C78.29947266 51.38079102 78.29947266 51.38079102 77.83984375 50.30273438 C76.31933212 46.79261709 74.72700434 43.44728274 72.765625 40.16015625 C71 37 71 37 71 34 C70.34 34 69.68 34 69 34 C68.72027344 33.28457031 68.44054687 32.56914062 68.15234375 31.83203125 C65.32483052 24.80416074 62.09616032 18.29495152 58.35546875 11.71484375 C57 9 57 9 57 6 C56.34 6 55.68 6 55 6 C55 5.01 55 4.02 55 3 C37.84 3 20.68 3 3 3 C2.67 3.66 2.34 4.32 2 5 C1.34 4.34 0.68 3.68 0 3 C0 2.01 0 1.02 0 0 Z " fill="#E02C17" transform="translate(153,98)"/>
<path d="M0 0 C2.80447041 3.19129392 4.55775257 6.17545694 6.1809082 10.08422852 C7.54353808 13.27127967 9.12182866 16.34646173 10.6875 19.4375 C11.39979391 20.85283724 12.11203192 22.26820262 12.82421875 23.68359375 C13.18563965 24.40015137 13.54706055 25.11670898 13.91943359 25.85498047 C15.62095769 29.23265574 17.31028655 32.61640508 19 36 C20.95827779 39.92131099 22.91840025 43.84155576 24.89453125 47.75390625 C28.87022755 55.64114187 32.71435264 63.58217387 36.5 71.5625 C39.9302141 78.78986217 43.4773421 85.91260113 47.29956055 92.93969727 C49.81227401 97.58108502 52.05126598 102.3031711 54.2109375 107.1171875 C55.69247558 110.38449201 57.26737122 113.60162187 58.8515625 116.8203125 C59.35840576 117.85671875 59.86524902 118.893125 60.38745117 119.9609375 C61.41118637 122.0506537 62.44246776 124.13669193 63.48168945 126.21875 C64.18491333 127.66121094 64.18491333 127.66121094 64.90234375 129.1328125 C65.33023193 129.99793457 65.75812012 130.86305664 66.19897461 131.75439453 C67 134 67 134 66 137 C62.65625 130.3125 59.3125 123.625 55.96875 116.9375 C55.64350342 116.2870874 55.31825684 115.6366748 54.9831543 114.96655273 C54.32029694 113.64067342 53.65770501 112.31466138 52.99536133 110.98852539 C51.37145436 107.73795574 49.74370045 104.48947012 48.10546875 101.24609375 C44.12977104 93.35885534 40.28578327 85.41776273 36.5 77.4375 C33.46504276 71.0454219 30.3817287 64.71600542 27 58.5 C23.09131752 51.31539306 19.58593658 43.96095708 16.08178711 36.57202148 C11.83621117 27.62347126 7.56325434 18.66091847 2.89013672 9.92529297 C2.52291504 9.22678223 2.15569336 8.52827148 1.77734375 7.80859375 C1.43823975 7.17622803 1.09913574 6.5438623 0.74975586 5.89233398 C0 4 0 4 0 0 Z " fill="#D4301E" transform="translate(242,167)"/>
<path d="M0 0 C13.86 0 27.72 0 42 0 C41.98839844 3.85429687 41.97679687 7.70859375 41.96484375 11.6796875 C41.93223076 24.46014227 41.94337397 37.2402513 41.97665405 50.02069092 C41.99576324 57.76430353 42.00026214 65.50738906 41.96923828 73.25097656 C41.94220668 80.00765352 41.94373693 86.76364727 41.97825909 93.52029991 C41.99554313 97.09157739 41.9994128 100.6616332 41.96896362 104.23284912 C41.84467019 119.971794 42.11414033 132.62651301 51 146 C52.23746999 148.22688419 53.39699471 150.48381801 54.5625 152.75 C55.05878906 153.67296875 55.55507813 154.5959375 56.06640625 155.546875 C57.09326983 158.2450772 57.03314987 159.35216679 56 162 C55.34 159.69 54.68 157.38 54 155 C53.34 155 52.68 155 52 155 C51.64808594 154.14019531 51.29617188 153.28039062 50.93359375 152.39453125 C47.77152378 144.82372665 44.30992002 137.66270576 40.22265625 130.546875 C39.81917969 129.70640625 39.41570312 128.8659375 39 128 C39.33 127.34 39.66 126.68 40 126 C40.10468239 124.34046432 40.14655551 122.67680071 40.15821838 121.01400757 C40.1680072 119.95948898 40.17779602 118.9049704 40.18788147 117.8184967 C40.19363693 116.65684494 40.1993924 115.49519318 40.20532227 114.29833984 C40.21522186 113.07885147 40.22512146 111.8593631 40.23532104 110.60292053 C40.2615435 107.25397739 40.28339119 103.90505854 40.30332303 100.55607557 C40.325167 97.05799747 40.35256345 93.55996305 40.37937927 90.06192017 C40.4293277 83.43568317 40.47425853 76.80942196 40.51740164 70.18313754 C40.56675566 62.64027965 40.62168058 55.09746559 40.67708123 47.55465007 C40.79093428 32.03647229 40.89703057 16.51825439 41 1 C27.47 1 13.94 1 0 1 C0 0.67 0 0.34 0 0 Z " fill="#470404" transform="translate(257,149)"/>
<path d="M0 0 C0.33 0 0.66 0 1 0 C1 25.08 1 50.16 1 76 C0.67 75.34 0.34 74.68 0 74 C-0.66 74 -1.32 74 -2 74 C-3.91976061 69.62721194 -3.89248064 67.52175778 -2.5005188 63.05270386 C-1.5381594 59.10592132 -1.65897942 55.07849388 -1.62109375 51.03515625 C-1.60409927 50.08418564 -1.5871048 49.13321503 -1.56959534 48.15342712 C-1.51676327 45.12318513 -1.47639839 42.09295012 -1.4375 39.0625 C-1.37868594 35.09496107 -1.31431979 31.12754409 -1.24609375 27.16015625 C-1.23017181 26.20428619 -1.21424988 25.24841614 -1.19784546 24.26358032 C-1.04408134 16.15472524 -0.61157275 8.08700343 0 0 Z " fill="#B4130C" transform="translate(344,296)"/>
<path d="M0 0 C2.3184879 2.91680736 4.04316642 5.84700571 5.6875 9.1875 C6.21085938 10.2496875 6.73421875 11.311875 7.2734375 12.40625 C8.81319668 15.6111786 10.32154283 18.82812522 11.81982422 22.05249023 C14.89946583 28.67606767 18.10316369 35.19073752 21.5625 41.625 C24.53813807 47.17369359 27.41988227 52.75130253 30.125 58.4375 C30.43252197 59.07059082 30.74004395 59.70368164 31.05688477 60.35595703 C31.76806331 61.87585679 32.39292199 63.43560667 33 65 C32.67 65.66 32.34 66.32 32 67 C30 66 30 66 29.3671875 64.15234375 C29.20476562 63.42144531 29.04234375 62.69054687 28.875 61.9375 C28.70742187 61.20402344 28.53984375 60.47054687 28.3671875 59.71484375 C28.24601562 59.14894531 28.12484375 58.58304688 28 58 C27.34 58 26.68 58 26 58 C25.54109375 56.92621094 25.0821875 55.85242188 24.609375 54.74609375 C23.98979858 53.30980296 23.36999474 51.87361026 22.75 50.4375 C22.44964844 49.73302734 22.14929688 49.02855469 21.83984375 48.30273438 C20.31933212 44.79261709 18.72700434 41.44728274 16.765625 38.16015625 C15 35 15 35 15 32 C14.34 32 13.68 32 13 32 C12.5978125 30.9790625 12.5978125 30.9790625 12.1875 29.9375 C9.3397686 22.89311181 6.15070582 16.1454042 2.59179688 9.43359375 C0.78535963 5.94554027 0 4.01180484 0 0 Z " fill="#D83922" transform="translate(209,100)"/>
<path d="M0 0 C4.18111718 3.43448911 6.39544192 7.90085222 8 13 C7.67 13.66 7.34 14.32 7 15 C6.67 15 6.34 15 6 15 C5.67 35.79 5.34 56.58 5 78 C4.67 78 4.34 78 4 78 C3.96907761 76.71119934 3.96907761 76.71119934 3.93753052 75.3963623 C3.7410834 67.27529605 3.53598746 59.1545033 3.32132149 51.0338974 C3.21127677 46.85961343 3.10450687 42.68530061 3.00537109 38.51074219 C2.90946857 34.47751694 2.80476783 30.44460508 2.6941185 26.41175842 C2.65354805 24.87777066 2.61607878 23.34369746 2.58185196 21.80955505 C2.35764575 10.75532938 2.35764575 10.75532938 0 0 Z " fill="#4E0605" transform="translate(198,192)"/>
<path d="M0 0 C13.53 0 27.06 0 41 0 C41 0.99 41 1.98 41 3 C20.705 2.505 20.705 2.505 0 2 C0 1.34 0 0.68 0 0 Z " fill="#1F0302" transform="translate(257,150)"/>
<path d="M0 0 C3.76599207 4.73170201 6.13572489 10.07755213 8.75 15.5 C9.26949219 16.54542969 9.78898437 17.59085937 10.32421875 18.66796875 C10.81019531 19.67472656 11.29617188 20.68148438 11.796875 21.71875 C12.24385742 22.63591797 12.69083984 23.55308594 13.15136719 24.49804688 C14.06926149 27.20419785 14.00398862 28.37087206 13 31 C12.34 28.69 11.68 26.38 11 24 C10.34 24 9.68 24 9 24 C8.61328125 23.0821875 8.2265625 22.164375 7.828125 21.21875 C7.30263789 19.97893148 6.77655715 18.73936445 6.25 17.5 C5.97921631 16.8615918 5.70843262 16.22318359 5.42944336 15.56542969 C3.92666198 12.0549324 2.34464059 8.62668742 0.5625 5.25 C0.046875 4.1775 -0.46875 3.105 -1 2 C-0.67 1.34 -0.34 0.68 0 0 Z " fill="#740806" transform="translate(300,280)"/>
<path d="M0 0 C0.33 0 0.66 0 1 0 C1 8.25 1 16.5 1 25 C0.34 25 -0.32 25 -1 25 C-2.85134856 20.7830394 -3.09978278 18.48236303 -1.58203125 14.14453125 C-0.33901743 9.56456757 -0.29454438 4.72046123 0 0 Z " fill="#A70A06" transform="translate(343,345)"/>
<path d="M0 0 C0.66 0 1.32 0 2 0 C3.03041513 1.95330868 4.0490893 3.91281528 5.0625 5.875 C5.63097656 6.96554687 6.19945312 8.05609375 6.78515625 9.1796875 C7.18605469 10.11039062 7.58695312 11.04109375 8 12 C7.67 12.66 7.34 13.32 7 14 C4.22685913 12.61342957 3.74046543 10.8798864 2.375 8.125 C1.70597656 6.79855469 1.70597656 6.79855469 1.0234375 5.4453125 C0 3 0 3 0 0 Z " fill="#CA2B1A" transform="translate(283,251)"/>
<path d="M0 0 C3.8443898 3.20365817 5.20612947 6.06036118 6 11 C4.53515625 13.21875 4.53515625 13.21875 3 15 C2 10 1 5 0 0 Z " fill="#4D0504" transform="translate(198,192)"/>
<path d="M0 0 C2.96659857 3.55991828 5.381348 7.65222543 7 12 C6.67 12.66 6.34 13.32 6 14 C2.15870308 9.17375515 0.37742233 6.16456476 0 0 Z " fill="#CA3A24" transform="translate(209,100)"/>
<path d="M0 0 C0.33 0 0.66 0 1 0 C1 3.96 1 7.92 1 12 C0.01 11.01 -0.98 10.02 -2 9 C-1.85546875 6.73828125 -1.85546875 6.73828125 -1.1875 4.3125 C-0.97480469 3.50425781 -0.76210938 2.69601562 -0.54296875 1.86328125 C-0.36378906 1.24839844 -0.18460937 0.63351562 0 0 Z " fill="#7C0504" transform="translate(342,357)"/>
<path d="M0 0 C2.12038635 2.61514317 4.13091744 5.19637616 6 8 C5.34 8.66 4.68 9.32 4 10 C0 3.375 0 3.375 0 0 Z " fill="#A10B07" transform="translate(275,341)"/>
</svg>
